<svg width="35" height="35" viewBox="0 0 35 35" fill="none" xmlns="http://www.w3.org/2000/svg">
<mask id="mask0_2709_35388" style="mask-type:luminance" maskUnits="userSpaceOnUse" x="10" y="9" width="16" height="17">
<path fill-rule="evenodd" clip-rule="evenodd" d="M15.7449 25.5003V25.5003C14.3649 25.5003 13.0532 24.9453 12.0515 23.9378C10.0615 21.9353 9.97986 18.7603 11.869 16.8595L18.024 10.6678C18.6649 10.0228 19.5299 9.66699 20.459 9.66699C21.4532 9.66699 22.3982 10.0662 23.119 10.7912C24.5532 12.2337 24.6082 14.5262 23.2407 15.9012L17.0782 22.092C16.679 22.4945 16.1415 22.7153 15.5649 22.7153V22.7153C14.9557 22.7153 14.3782 22.472 13.9399 22.0312C13.0624 21.147 13.0349 19.7378 13.879 18.8878L19.5665 13.1753C19.8915 12.8487 20.4182 12.847 20.7449 13.172C21.0707 13.497 21.0724 14.0245 20.7474 14.3503L15.0607 20.0637C14.8607 20.2653 14.8882 20.6212 15.1224 20.8562C15.244 20.9787 15.4057 21.0487 15.5649 21.0487V21.0487C15.6565 21.0487 15.7882 21.0262 15.8965 20.917L22.059 14.7262C22.7815 13.9987 22.7274 12.7612 21.9374 11.9662C21.1815 11.2062 19.899 11.1462 19.2057 11.8428L13.0507 18.0345C11.8057 19.287 11.8874 21.4087 13.234 22.7628C13.9199 23.4537 14.8115 23.8337 15.7449 23.8337C16.579 23.8337 17.3524 23.5187 17.9207 22.947L24.0765 16.7553C24.4007 16.4295 24.9282 16.427 25.2549 16.752C25.5807 17.077 25.5824 17.6037 25.2582 17.9303L19.1024 24.122C18.219 25.0103 17.0265 25.5003 15.7449 25.5003" fill="white"/>
</mask>
<g mask="url(#mask0_2709_35388)">
<rect x="8" y="8" width="20" height="20" fill="#ADACB3"/>
</g>
</svg>
