<svg width="35" height="35" viewBox="0 0 35 35" fill="none" xmlns="http://www.w3.org/2000/svg">
<mask id="mask0_1252_4302" style="mask-type:luminance" maskUnits="userSpaceOnUse" x="4" y="4" width="27" height="27">
<path fill-rule="evenodd" clip-rule="evenodd" d="M17.5001 15.3163L29.9134 10.0983C29.7005 9.88105 29.4599 9.6871 29.1682 9.55147L18.6682 4.63105C17.9317 4.28835 17.0684 4.28835 16.3319 4.63105L5.83194 9.55147C5.54028 9.6871 5.29965 9.88105 5.08674 10.0983L17.5001 15.3163ZM16.4063 17.2474L4.37507 12.1899V23.4613C4.36778 24.3961 4.92778 25.2536 5.81882 25.6751L16.3188 30.5941C16.333 30.6008 16.3479 30.6052 16.363 30.6097C16.3775 30.6139 16.3921 30.6183 16.4063 30.6247V17.2474ZM18.5938 30.6203V17.2474L30.6251 12.1899V23.4745C30.6251 24.4063 30.0607 25.2595 29.1682 25.6751L18.6682 30.5941C18.655 30.6007 18.6409 30.6049 18.6266 30.6092C18.6156 30.6125 18.6046 30.6159 18.5938 30.6203Z" fill="white"/>
</mask>
<g mask="url(#mask0_1252_4302)">
<rect width="35" height="35" fill="#ADACB3"/>
</g>
</svg>
