<svg width="35" height="35" viewBox="0 0 35 35" fill="none" xmlns="http://www.w3.org/2000/svg">
<mask id="mask0_1255_4526" style="mask-type:luminance" maskUnits="userSpaceOnUse" x="4" y="4" width="27" height="27">
<path fill-rule="evenodd" clip-rule="evenodd" d="M27.2564 23.2796L18.9585 27.1354V17.3413L27.7085 13.2769V22.6613C27.7085 22.915 27.5364 23.1513 27.2564 23.2796ZM7.73366 23.2811C7.45804 23.1527 7.28887 22.9165 7.29179 22.6511V13.2769L16.0418 17.3413V27.1384L7.73366 23.2811ZM17.0728 7.38524C17.2055 7.32253 17.3528 7.2919 17.5001 7.2919C17.646 7.2919 17.7932 7.32253 17.926 7.38524L25.6974 10.9932L17.5001 14.8023L9.30137 10.9932L17.0728 7.38524ZM30.1235 10.5863C30.1191 10.5746 30.1205 10.5615 30.1147 10.5498C30.1103 10.5382 30.0987 10.5309 30.0914 10.5192C30.0243 10.4084 29.9426 10.3107 29.8653 10.2086C29.8201 10.159 29.7837 10.1036 29.7341 10.0613C29.3914 9.65878 28.9874 9.3044 28.4857 9.07253L19.1524 4.7369C19.151 4.7369 19.1495 4.7369 19.1495 4.73544C18.101 4.25128 16.8978 4.25274 15.8464 4.7369L6.51741 9.07107C6.01575 9.30294 5.61033 9.65586 5.26762 10.0584C5.21366 10.1036 5.17429 10.1648 5.12616 10.2188C5.05033 10.3165 4.97304 10.4113 4.90887 10.5163C4.90158 10.5294 4.88991 10.5382 4.88408 10.5498C4.87825 10.5629 4.8797 10.5761 4.87387 10.5892C4.56616 11.1171 4.37512 11.7107 4.37512 12.3348V22.6409C4.36345 24.0263 5.19762 25.3154 6.50137 25.925L15.8332 30.2592C16.3612 30.5057 16.927 30.6282 17.4943 30.6282C18.0601 30.6282 18.626 30.5057 19.1524 30.2607L28.4814 25.9265C29.7822 25.3257 30.6237 24.0452 30.6251 22.6627V12.3334C30.6237 11.7092 30.4326 11.1157 30.1235 10.5863Z" fill="white"/>
</mask>
<g mask="url(#mask0_1255_4526)">
<rect width="35" height="35" fill="#ADACB3"/>
</g>
</svg>
