<svg width="35" height="35" viewBox="0 0 35 35" fill="none" xmlns="http://www.w3.org/2000/svg">
<path d="M1.91299 22.1184C-0.637664 19.5677 -0.637664 15.4323 1.91299 12.8816L12.8816 1.91299C15.4323 -0.637664 19.5677 -0.637664 22.1184 1.91299L33.087 12.8816C35.6377 15.4323 35.6377 19.5677 33.087 22.1184L22.1184 33.087C19.5677 35.6377 15.4323 35.6377 12.8816 33.087L1.91299 22.1184Z" fill="white" fill-opacity="0.2"/>
<path d="M13.2354 2.2666C15.5907 -0.0887163 19.4093 -0.0887157 21.7646 2.2666L32.7334 13.2354C35.0887 15.5907 35.0887 19.4093 32.7334 21.7646L21.7646 32.7334C19.4093 35.0887 15.5907 35.0887 13.2354 32.7334L2.2666 21.7646C-0.0887158 19.4093 -0.0887162 15.5907 2.2666 13.2354L13.2354 2.2666Z" stroke="white" stroke-opacity="0.3"/>
<path d="M20.4102 20.4103L24.4923 16.3282L20.4102 12.2461" stroke="white" stroke-width="2" stroke-linecap="round" stroke-linejoin="round"/>
<path d="M11.4297 21.2266V19.5938C11.4297 18.7277 11.7737 17.8971 12.3862 17.2846C12.9986 16.6722 13.8293 16.3281 14.6954 16.3281H24.4924" stroke="white" stroke-width="2" stroke-linecap="round" stroke-linejoin="round"/>
</svg>
