<svg width="35" height="35" viewBox="0 0 35 35" fill="none" xmlns="http://www.w3.org/2000/svg">
<path d="M10.5455 14.9231V21.0769C10.5455 21.2809 10.464 21.4766 10.3191 21.6209C10.1742 21.7651 9.97767 21.8462 9.77273 21.8462C9.56779 21.8462 9.37124 21.7651 9.22633 21.6209C9.08141 21.4766 9 21.2809 9 21.0769V14.9231C9 14.7191 9.08141 14.5234 9.22633 14.3791C9.37124 14.2349 9.56779 14.1538 9.77273 14.1538C9.97767 14.1538 10.1742 14.2349 10.3191 14.3791C10.464 14.5234 10.5455 14.7191 10.5455 14.9231ZM13.6364 8C13.4314 8 13.2349 8.08104 13.09 8.2253C12.945 8.36956 12.8636 8.56522 12.8636 8.76923V27.2308C12.8636 27.4348 12.945 27.6304 13.09 27.7747C13.2349 27.919 13.4314 28 13.6364 28C13.8413 28 14.0378 27.919 14.1828 27.7747C14.3277 27.6304 14.4091 27.4348 14.4091 27.2308V8.76923C14.4091 8.56522 14.3277 8.36956 14.1828 8.2253C14.0378 8.08104 13.8413 8 13.6364 8ZM17.5 11.0769C17.2951 11.0769 17.0985 11.158 16.9536 11.3022C16.8087 11.4465 16.7273 11.6421 16.7273 11.8462V24.1538C16.7273 24.3579 16.8087 24.5535 16.9536 24.6978C17.0985 24.842 17.2951 24.9231 17.5 24.9231C17.7049 24.9231 17.9015 24.842 18.0464 24.6978C18.1913 24.5535 18.2727 24.3579 18.2727 24.1538V11.8462C18.2727 11.6421 18.1913 11.4465 18.0464 11.3022C17.9015 11.158 17.7049 11.0769 17.5 11.0769ZM21.3636 14.1538C21.1587 14.1538 20.9621 14.2349 20.8172 14.3791C20.6723 14.5234 20.5909 14.7191 20.5909 14.9231V21.0769C20.5909 21.2809 20.6723 21.4766 20.8172 21.6209C20.9621 21.7651 21.1587 21.8462 21.3636 21.8462C21.5686 21.8462 21.7651 21.7651 21.91 21.6209C22.055 21.4766 22.1364 21.2809 22.1364 21.0769V14.9231C22.1364 14.7191 22.055 14.5234 21.91 14.3791C21.7651 14.2349 21.5686 14.1538 21.3636 14.1538ZM25.2273 12.6154C25.0223 12.6154 24.8258 12.6964 24.6809 12.8407C24.536 12.9849 24.4545 13.1806 24.4545 13.3846V22.6154C24.4545 22.8194 24.536 23.0151 24.6809 23.1593C24.8258 23.3036 25.0223 23.3846 25.2273 23.3846C25.4322 23.3846 25.6288 23.3036 25.7737 23.1593C25.9186 23.0151 26 22.8194 26 22.6154V13.3846C26 13.1806 25.9186 12.9849 25.7737 12.8407C25.6288 12.6964 25.4322 12.6154 25.2273 12.6154Z" fill="#ADACB3"/>
</svg>
