<svg width="35" height="35" viewBox="0 0 35 35" fill="none" xmlns="http://www.w3.org/2000/svg">
<path d="M17.5 3.28125C14.6878 3.28125 11.9388 4.11517 9.60049 5.67754C7.26223 7.23992 5.43978 9.46058 4.36359 12.0587C3.28741 14.6569 3.00583 17.5158 3.55447 20.2739C4.1031 23.0321 5.4573 25.5656 7.44583 27.5542C9.43436 29.5427 11.9679 30.8969 14.7261 31.4455C17.4842 31.9942 20.3431 31.7126 22.9413 30.6364C25.5394 29.5602 27.7601 27.7378 29.3225 25.3995C30.8848 23.0613 31.7188 20.3122 31.7188 17.5C31.7148 13.7302 30.2155 10.1159 27.5498 7.45022C24.8841 4.78455 21.2698 3.28523 17.5 3.28125ZM17.5 29.5312C15.1205 29.5312 12.7943 28.8256 10.8158 27.5036C8.83727 26.1816 7.2952 24.3026 6.38458 22.1042C5.47396 19.9057 5.2357 17.4867 5.69993 15.1528C6.16416 12.819 7.31003 10.6752 8.99263 8.99262C10.6752 7.31002 12.819 6.16416 15.1528 5.69993C17.4867 5.2357 19.9057 5.47396 22.1042 6.38457C24.3026 7.29519 26.1816 8.83727 27.5036 10.8158C28.8256 12.7943 29.5313 15.1204 29.5313 17.5C29.5276 20.6898 28.2589 23.7479 26.0034 26.0034C23.7479 28.2589 20.6898 29.5276 17.5 29.5312ZM17.5 7.65625C15.5531 7.65625 13.6499 8.23358 12.0311 9.31522C10.4123 10.3969 9.15062 11.9342 8.40557 13.733C7.66052 15.5317 7.46558 17.5109 7.8454 19.4204C8.22522 21.3299 9.16275 23.0839 10.5394 24.4606C11.9161 25.8373 13.6701 26.7748 15.5796 27.1546C17.4891 27.5344 19.4683 27.3395 21.267 26.5944C23.0658 25.8494 24.6031 24.5877 25.6848 22.9689C26.7664 21.3501 27.3438 19.4469 27.3438 17.5C27.3409 14.8902 26.3028 12.388 24.4574 10.5426C22.612 8.69718 20.1098 7.65914 17.5 7.65625ZM17.5 25.1562C15.9857 25.1562 14.5055 24.7072 13.2464 23.8659C11.9874 23.0247 11.006 21.8289 10.4266 20.4299C9.84707 19.0309 9.69545 17.4915 9.99087 16.0063C10.2863 14.5212 11.0155 13.157 12.0862 12.0862C13.157 11.0155 14.5212 10.2863 16.0063 9.99086C17.4915 9.69545 19.0309 9.84706 20.4299 10.4265C21.8289 11.006 23.0247 11.9874 23.8659 13.2464C24.7072 14.5055 25.1563 15.9857 25.1563 17.5C25.1541 19.5299 24.3468 21.476 22.9114 22.9114C21.476 24.3467 19.5299 25.1541 17.5 25.1562Z" fill="#ADACB3"/>
</svg>
